<svg width="22" height="22" viewBox="0 0 22 22" fill="none" xmlns="http://www.w3.org/2000/svg">
<circle opacity="0.5" cx="11.2514" cy="10.7948" r="10.394" fill="#E67818"/>
<path d="M14.035 14.4141H13.9877C8.5169 14.0995 7.74014 9.48347 7.63156 8.07471C7.62281 7.96518 7.63576 7.855 7.66967 7.75048C7.70357 7.64596 7.75777 7.54916 7.82915 7.46562C7.90053 7.38208 7.9877 7.31345 8.08565 7.26366C8.1836 7.21386 8.29041 7.18389 8.39997 7.17545H9.93401C10.0455 7.17534 10.1545 7.20872 10.2468 7.27126C10.3392 7.33381 10.4106 7.42264 10.4519 7.52624L10.875 8.5675C10.9158 8.66871 10.9259 8.77967 10.9041 8.88658C10.8823 8.99349 10.8296 9.09165 10.7525 9.16886L10.1595 9.76744C10.2522 10.2938 10.5042 10.7791 10.8817 11.1575C11.2591 11.536 11.7437 11.7893 12.2699 11.8834L12.874 11.2848C12.9524 11.2085 13.0515 11.1571 13.1589 11.1368C13.2663 11.1165 13.3774 11.1282 13.4782 11.1706L14.5278 11.591C14.6298 11.6336 14.7169 11.7056 14.7779 11.7978C14.8389 11.89 14.871 11.9983 14.8702 12.1089V13.5789C14.8702 13.8004 14.7822 14.0128 14.6256 14.1695C14.469 14.3261 14.2565 14.4141 14.035 14.4141ZM8.46679 7.73227C8.39295 7.73227 8.32213 7.7616 8.26992 7.81381C8.21771 7.86602 8.18838 7.93684 8.18838 8.01068V8.03295C8.31645 9.68114 9.13776 13.5789 14.0183 13.8573C14.0549 13.8595 14.0915 13.8546 14.1262 13.8426C14.1608 13.8307 14.1928 13.812 14.2202 13.7877C14.2476 13.7634 14.2699 13.7339 14.2859 13.7009C14.3019 13.668 14.3113 13.6322 14.3134 13.5956V12.1089L13.2638 11.6885L12.4648 12.4819L12.3311 12.4652C9.90895 12.1618 9.58043 9.7396 9.58043 9.71455L9.56372 9.58091L10.3544 8.78187L9.93679 7.73227H8.46679Z" fill="white"/>
</svg>
