<svg width="32" height="25" viewBox="0 0 32 25" fill="none" xmlns="http://www.w3.org/2000/svg">
<path fill-rule="evenodd" clip-rule="evenodd" d="M31.7078 6.79202C31.8009 6.88491 31.8748 6.99526 31.9252 7.11675C31.9756 7.23824 32.0016 7.36848 32.0016 7.50002C32.0016 7.63155 31.9756 7.76179 31.9252 7.88328C31.8748 8.00477 31.8009 8.11513 31.7078 8.20802L25.7078 14.208C25.6149 14.3011 25.5046 14.375 25.3831 14.4254C25.2616 14.4759 25.1313 14.5018 24.9998 14.5018C24.8683 14.5018 24.738 14.4759 24.6165 14.4254C24.495 14.375 24.3847 14.3011 24.2918 14.208L21.2918 11.208C21.104 11.0202 20.9985 10.7656 20.9985 10.5C20.9985 10.2345 21.104 9.97979 21.2918 9.79202C21.4796 9.60424 21.7342 9.49875 21.9998 9.49875C22.2653 9.49875 22.52 9.60424 22.7078 9.79202L24.9998 12.086L30.2918 6.79202C30.3847 6.69889 30.495 6.625 30.6165 6.57459C30.738 6.52418 30.8683 6.49823 30.9998 6.49823C31.1313 6.49823 31.2616 6.52418 31.3831 6.57459C31.5046 6.625 31.6149 6.69889 31.7078 6.79202Z" fill="#268ADB"/>
<path d="M2 24.5C2 24.5 0 24.5 0 22.5C0 20.5 2 14.5 12 14.5C22 14.5 24 20.5 24 22.5C24 24.5 22 24.5 22 24.5H2ZM12 12.5C13.5913 12.5 15.1174 11.8679 16.2426 10.7426C17.3679 9.61742 18 8.0913 18 6.5C18 4.9087 17.3679 3.38258 16.2426 2.25736C15.1174 1.13214 13.5913 0.5 12 0.5C10.4087 0.5 8.88258 1.13214 7.75736 2.25736C6.63214 3.38258 6 4.9087 6 6.5C6 8.0913 6.63214 9.61742 7.75736 10.7426C8.88258 11.8679 10.4087 12.5 12 12.5Z" fill="#268ADB"/>
</svg>
