<svg width="32" height="25" viewBox="0 0 32 25" fill="none" xmlns="http://www.w3.org/2000/svg">
<path d="M14 24.5C14 24.5 12 24.5 12 22.5C12 20.5 14 14.5 22 14.5C30 14.5 32 20.5 32 22.5C32 24.5 30 24.5 30 24.5H14ZM22 12.5C23.5913 12.5 25.1174 11.8679 26.2426 10.7426C27.3679 9.61742 28 8.0913 28 6.5C28 4.9087 27.3679 3.38258 26.2426 2.25736C25.1174 1.13214 23.5913 0.5 22 0.5C20.4087 0.5 18.8826 1.13214 17.7574 2.25736C16.6321 3.38258 16 4.9087 16 6.5C16 8.0913 16.6321 9.61742 17.7574 10.7426C18.8826 11.8679 20.4087 12.5 22 12.5Z" fill="#268ADB"/>
<path fill-rule="evenodd" clip-rule="evenodd" d="M10.432 24.5C10.1355 23.8756 9.98765 23.1911 10 22.5C10 19.79 11.36 17 13.872 15.06C12.6182 14.6737 11.3119 14.4847 10 14.5C2 14.5 0 20.5 0 22.5C0 24.5 2 24.5 2 24.5H10.432Z" fill="#268ADB"/>
<path d="M9 12.5C10.3261 12.5 11.5979 11.9732 12.5355 11.0355C13.4732 10.0979 14 8.82608 14 7.5C14 6.17392 13.4732 4.90215 12.5355 3.96447C11.5979 3.02678 10.3261 2.5 9 2.5C7.67392 2.5 6.40215 3.02678 5.46447 3.96447C4.52678 4.90215 4 6.17392 4 7.5C4 8.82608 4.52678 10.0979 5.46447 11.0355C6.40215 11.9732 7.67392 12.5 9 12.5Z" fill="#268ADB"/>
</svg>
