<svg width="21" height="21" viewBox="0 0 21 21" fill="none" xmlns="http://www.w3.org/2000/svg">
<circle opacity="0.5" cx="10.5795" cy="10.606" r="10.394" fill="#E67818"/>
<g clip-path="url(#clip0_486_2593)">
<path d="M13.9203 7.82193H7.23846C7.09078 7.82193 6.94915 7.88059 6.84473 7.98502C6.74031 8.08944 6.68164 8.23107 6.68164 8.37875V12.8333C6.68164 12.981 6.74031 13.1226 6.84473 13.227C6.94915 13.3315 7.09078 13.3901 7.23846 13.3901H13.9203C14.068 13.3901 14.2096 13.3315 14.314 13.227C14.4185 13.1226 14.4771 12.981 14.4771 12.8333V8.37875C14.4771 8.23107 14.4185 8.08944 14.314 7.98502C14.2096 7.88059 14.068 7.82193 13.9203 7.82193ZM13.3078 8.37875L10.5794 10.2664L7.85096 8.37875H13.3078ZM7.23846 12.8333V8.6321L10.4207 10.8343C10.4673 10.8667 10.5227 10.884 10.5794 10.884C10.6361 10.884 10.6915 10.8667 10.7381 10.8343L13.9203 8.6321V12.8333H7.23846Z" fill="white"/>
</g>
<defs>
<clipPath id="clip0_486_2593">
<rect width="8.90912" height="8.90912" fill="white" transform="translate(6.125 6.15147)"/>
</clipPath>
</defs>
</svg>
