<svg width="36" height="37" viewBox="0 0 36 37" fill="none" xmlns="http://www.w3.org/2000/svg">
<path d="M18.8747 0.784738L35.0753 12.0336C35.9416 12.6383 36.2566 14.0092 35.7729 15.0919C35.2891 16.1746 34.1922 16.5684 33.3259 15.9637L18.0028 5.32648L2.67411 15.9708C1.80783 16.5754 0.710915 16.1817 0.227147 15.099C-0.256621 14.0163 0.0583909 12.6453 0.924673 12.0407L17.1309 0.784738C17.6765 0.405087 18.3347 0.405087 18.8803 0.784738H18.8747ZM18.0028 17.3769C16.7596 17.3769 15.7527 16.1184 15.7527 14.5646C15.7527 13.0109 16.7596 11.7524 18.0028 11.7524C19.246 11.7524 20.2529 13.0109 20.2529 14.5646C20.2529 16.1184 19.246 17.3769 18.0028 17.3769ZM8.10244 24.1262C6.85927 24.1262 5.85236 22.8677 5.85236 21.314C5.85236 19.7602 6.85927 18.5018 8.10244 18.5018C9.34561 18.5018 10.3525 19.7602 10.3525 21.314C10.3525 22.8677 9.34561 24.1262 8.10244 24.1262ZM30.1533 21.314C30.1533 22.8677 29.1464 24.1262 27.9032 24.1262C26.66 24.1262 25.6531 22.8677 25.6531 21.314C25.6531 19.7602 26.66 18.5018 27.9032 18.5018C29.1464 18.5018 30.1533 19.7602 30.1533 21.314ZM12.7657 35.0517L11.2526 31.5435V34.2502C11.2526 35.4946 10.4482 36.5 9.45249 36.5H6.75239C5.75673 36.5 4.95232 35.4946 4.95232 34.2502V31.5435L3.43914 35.0517C3.08475 35.8743 2.2691 36.1766 1.61095 35.7407C0.952799 35.3048 0.710915 34.2783 1.05968 33.4558L3.19163 28.5133C4.05229 26.5096 5.7286 25.2581 7.55117 25.2581H8.64809C9.565 25.2581 10.4425 25.5745 11.2019 26.144L13.092 21.7639C13.9527 19.7602 15.629 18.5088 17.4515 18.5088H18.5485C20.371 18.5088 22.0417 19.7602 22.908 21.7639L24.7981 26.144C25.5575 25.5745 26.435 25.2581 27.3519 25.2581H28.4488C30.2714 25.2581 31.9421 26.5096 32.8084 28.5133L34.9403 33.4558C35.2947 34.2783 35.0472 35.2978 34.389 35.7407C33.7309 36.1836 32.9152 35.8743 32.5609 35.0517L31.0533 31.5435V34.2502C31.0533 35.4946 30.2489 36.5 29.2532 36.5H26.5531C25.5575 36.5 24.7531 35.4946 24.7531 34.2502V31.5435L23.2399 35.0517C22.8855 35.8743 22.0698 36.1766 21.4117 35.7407C20.7535 35.3048 20.5117 34.2783 20.8604 33.4558L22.9024 28.7101C22.8067 28.5906 22.7224 28.457 22.6605 28.3024L21.1529 24.7941V28.6258C21.1529 29.8702 20.3485 30.8755 19.3529 30.8755H16.6528C15.6571 30.8755 14.8527 29.8702 14.8527 28.6258V24.7941L13.3395 28.3024C13.272 28.457 13.1933 28.5906 13.0976 28.7101L15.1396 33.4558C15.494 34.2783 15.2465 35.2978 14.5883 35.7407C13.9302 36.1836 13.1145 35.8743 12.7601 35.0517H12.7657Z" fill="#268ADB"/>
</svg>
