<svg width="70" height="71" viewBox="0 0 70 71" fill="none" xmlns="http://www.w3.org/2000/svg">
<g clip-path="url(#clip0_312_7349)">
<path d="M34.9998 4.83203C28.8466 4.83203 22.8316 6.65667 17.7154 10.0752C12.5992 13.4937 8.6116 18.3526 6.25688 24.0374C3.90215 29.7222 3.28605 35.9777 4.48648 42.0126C5.68691 48.0476 8.64995 53.5911 13.0009 57.942C17.3519 62.293 22.8954 65.256 28.9303 66.4565C34.9653 67.6569 41.2207 67.0408 46.9055 64.6861C52.5903 62.3313 57.4492 58.3437 60.8677 53.2276C64.2863 48.1114 66.1109 42.0963 66.1109 35.9431C66.1109 27.692 62.8331 19.7787 56.9987 13.9443C51.1642 8.1098 43.251 4.83203 34.9998 4.83203ZM34.9998 63.1654C29.6157 63.1654 24.3526 61.5688 19.8759 58.5776C15.3993 55.5864 11.9101 51.3348 9.84974 46.3606C7.78936 41.3864 7.25027 35.9129 8.30064 30.6324C9.35102 25.3518 11.9437 20.5012 15.7508 16.6941C19.5579 12.887 24.4084 10.2944 29.689 9.24399C34.9696 8.19361 40.4431 8.7327 45.4173 10.7931C50.3915 12.8535 54.643 16.3426 57.6343 20.8193C60.6255 25.296 62.222 30.5591 62.222 35.9431C62.222 43.1629 59.354 50.087 54.2488 55.1922C49.1437 60.2973 42.2196 63.1654 34.9998 63.1654Z" fill="#0BB954"/>
<path d="M54.4445 24.4707C54.0802 24.1086 53.5874 23.9053 53.0737 23.9053C52.56 23.9053 52.0672 24.1086 51.7029 24.4707L30.1195 45.9568L18.4529 34.2901C18.097 33.906 17.6032 33.6788 17.0799 33.6588C16.5566 33.6387 16.0468 33.8274 15.6626 34.1832C15.2784 34.539 15.0513 35.0329 15.0312 35.5562C15.0112 36.0795 15.1998 36.5893 15.5556 36.9735L30.1195 51.4985L54.4445 27.2318C54.6268 27.0511 54.7714 26.836 54.8702 26.599C54.9689 26.3621 55.0197 26.108 55.0197 25.8513C55.0197 25.5946 54.9689 25.3404 54.8702 25.1035C54.7714 24.8665 54.6268 24.6515 54.4445 24.4707Z" fill="#0BB954"/>
</g>
<defs>
<clipPath id="clip0_312_7349">
<rect width="70" height="70" fill="white" transform="translate(0 0.943359)"/>
</clipPath>
</defs>
</svg>
