<svg width="70" height="71" viewBox="0 0 70 71" fill="none" xmlns="http://www.w3.org/2000/svg">
<path d="M35 51.1992C34.351 51.1992 33.7166 51.3917 33.177 51.7522C32.6374 52.1128 32.2169 52.6252 31.9685 53.2248C31.7202 53.8244 31.6552 54.4841 31.7818 55.1206C31.9084 55.7571 32.2209 56.3418 32.6798 56.8007C33.1387 57.2596 33.7234 57.5721 34.3599 57.6987C34.9964 57.8253 35.6561 57.7603 36.2557 57.5119C36.8552 57.2636 37.3677 56.843 37.7283 56.3034C38.0888 55.7638 38.2813 55.1294 38.2813 54.4805C38.2813 53.6102 37.9355 52.7756 37.3202 52.1603C36.7048 51.5449 35.8702 51.1992 35 51.1992ZM32.8125 27.1367H37.1875V46.8242H32.8125V27.1367Z" fill="#C22929"/>
<path d="M63.4376 66.511H6.5626C6.18693 66.5109 5.81764 66.414 5.49029 66.2297C5.16294 66.0454 4.88857 65.7799 4.69361 65.4587C4.49865 65.1376 4.38968 64.7717 4.37719 64.3963C4.36469 64.0208 4.44911 63.6484 4.62229 63.3151L33.0598 8.62757C33.2446 8.27262 33.5232 7.97516 33.8653 7.76756C34.2074 7.55997 34.5999 7.4502 35.0001 7.4502C35.4003 7.4502 35.7928 7.55997 36.1349 7.76756C36.477 7.97516 36.7556 8.27262 36.9404 8.62757L65.3779 63.3151C65.5511 63.6484 65.6355 64.0208 65.623 64.3963C65.6105 64.7717 65.5016 65.1376 65.3066 65.4587C65.1116 65.7799 64.8373 66.0454 64.5099 66.2297C64.1826 66.414 63.8133 66.5109 63.4376 66.511ZM10.172 62.136H59.8282L59.8304 62.1295L35.0045 14.3829H34.9957L10.1676 62.1295L10.172 62.136Z" fill="#C22929"/>
</svg>
